<mxfile host="Electron" agent="Mozilla/5.0 (Windows NT 10.0; Win64; x64) AppleWebKit/537.36 (KHTML, like Gecko) draw.io/24.7.8 Chrome/128.0.6613.36 Electron/32.0.1 Safari/537.36" version="24.7.8">
  <diagram name="Seite-1" id="lUoPQFugZOIe4XNM-zmh">
    <mxGraphModel dx="834" dy="1258" grid="1" gridSize="10" guides="1" tooltips="1" connect="1" arrows="1" fold="1" page="1" pageScale="1" pageWidth="1169" pageHeight="827" math="0" shadow="0">
      <root>
        <mxCell id="0" />
        <mxCell id="1" parent="0" />
        <mxCell id="3dMW__xWqFYQ9HDm3cvc-27" style="edgeStyle=orthogonalEdgeStyle;rounded=0;orthogonalLoop=1;jettySize=auto;html=1;entryX=0;entryY=0.5;entryDx=0;entryDy=0;" edge="1" parent="1" source="3dMW__xWqFYQ9HDm3cvc-1" target="3dMW__xWqFYQ9HDm3cvc-12">
          <mxGeometry relative="1" as="geometry" />
        </mxCell>
        <mxCell id="3dMW__xWqFYQ9HDm3cvc-1" value="MQTT Broker&lt;br&gt;/event_data/{platform}/{event_type}" style="rounded=0;whiteSpace=wrap;html=1;" vertex="1" parent="1">
          <mxGeometry x="500" y="130" width="230" height="60" as="geometry" />
        </mxCell>
        <mxCell id="3dMW__xWqFYQ9HDm3cvc-2" value="SE API (websocket)" style="rounded=0;whiteSpace=wrap;html=1;" vertex="1" parent="1">
          <mxGeometry x="70" y="130" width="120" height="60" as="geometry" />
        </mxCell>
        <mxCell id="3dMW__xWqFYQ9HDm3cvc-18" style="edgeStyle=orthogonalEdgeStyle;rounded=0;orthogonalLoop=1;jettySize=auto;html=1;exitX=1;exitY=0.5;exitDx=0;exitDy=0;entryX=0;entryY=0.5;entryDx=0;entryDy=0;" edge="1" parent="1" source="3dMW__xWqFYQ9HDm3cvc-3" target="3dMW__xWqFYQ9HDm3cvc-1">
          <mxGeometry relative="1" as="geometry" />
        </mxCell>
        <mxCell id="3dMW__xWqFYQ9HDm3cvc-25" value="Text" style="edgeLabel;html=1;align=center;verticalAlign=middle;resizable=0;points=[];" vertex="1" connectable="0" parent="3dMW__xWqFYQ9HDm3cvc-18">
          <mxGeometry x="-0.3111" y="-4" relative="1" as="geometry">
            <mxPoint x="9" y="-4" as="offset" />
          </mxGeometry>
        </mxCell>
        <mxCell id="3dMW__xWqFYQ9HDm3cvc-3" value="Websocket client" style="rounded=0;whiteSpace=wrap;html=1;" vertex="1" parent="1">
          <mxGeometry x="290" y="130" width="120" height="60" as="geometry" />
        </mxCell>
        <mxCell id="3dMW__xWqFYQ9HDm3cvc-5" value="Event" style="swimlane;fontStyle=1;align=center;verticalAlign=top;childLayout=stackLayout;horizontal=1;startSize=26;horizontalStack=0;resizeParent=1;resizeParentMax=0;resizeLast=0;collapsible=1;marginBottom=0;whiteSpace=wrap;html=1;" vertex="1" parent="1">
          <mxGeometry x="450" y="290" width="310" height="170" as="geometry">
            <mxRectangle x="310" y="490" width="70" height="30" as="alternateBounds" />
          </mxGeometry>
        </mxCell>
        <mxCell id="3dMW__xWqFYQ9HDm3cvc-6" value="+ member: activityId (str)&lt;br&gt;+ member:&amp;nbsp;createdAt (datetime)&lt;div&gt;+&amp;nbsp;&lt;span style=&quot;background-color: initial;&quot;&gt;member:&lt;/span&gt;&lt;span style=&quot;background-color: initial;&quot;&gt;&amp;nbsp;&lt;/span&gt;&lt;span style=&quot;background-color: initial;&quot;&gt;updatedAt (datetime)&lt;/span&gt;&lt;/div&gt;&lt;div&gt;+&amp;nbsp;&lt;span style=&quot;background-color: initial;&quot;&gt;member:&lt;/span&gt;&lt;span style=&quot;background-color: initial;&quot;&gt;&amp;nbsp;&lt;/span&gt;&lt;span style=&quot;background-color: initial;&quot;&gt;sessionEventCount (int)&lt;/span&gt;&lt;/div&gt;&lt;div&gt;+&amp;nbsp;&lt;span style=&quot;background-color: initial;&quot;&gt;member:&lt;/span&gt;&lt;span style=&quot;background-color: initial;&quot;&gt;&amp;nbsp;&lt;/span&gt;&lt;span style=&quot;background-color: initial;&quot;&gt;acitivityGroup (str, Optional)&lt;/span&gt;&lt;/div&gt;&lt;div&gt;+&amp;nbsp;&lt;span style=&quot;background-color: initial;&quot;&gt;member:&lt;/span&gt;&lt;span style=&quot;background-color: initial;&quot;&gt;&amp;nbsp;&lt;/span&gt;&lt;span style=&quot;background-color: initial;&quot;&gt;data (dict)&lt;/span&gt;&lt;/div&gt;" style="text;strokeColor=none;fillColor=none;align=left;verticalAlign=top;spacingLeft=4;spacingRight=4;overflow=hidden;rotatable=0;points=[[0,0.5],[1,0.5]];portConstraint=eastwest;whiteSpace=wrap;html=1;" vertex="1" parent="3dMW__xWqFYQ9HDm3cvc-5">
          <mxGeometry y="26" width="310" height="104" as="geometry" />
        </mxCell>
        <mxCell id="3dMW__xWqFYQ9HDm3cvc-7" value="" style="line;strokeWidth=1;fillColor=none;align=left;verticalAlign=middle;spacingTop=-1;spacingLeft=3;spacingRight=3;rotatable=0;labelPosition=right;points=[];portConstraint=eastwest;strokeColor=inherit;" vertex="1" parent="3dMW__xWqFYQ9HDm3cvc-5">
          <mxGeometry y="130" width="310" height="8" as="geometry" />
        </mxCell>
        <mxCell id="3dMW__xWqFYQ9HDm3cvc-8" value="+ method(type): send_to_mqtt(provider, event_type)" style="text;strokeColor=none;fillColor=none;align=left;verticalAlign=top;spacingLeft=4;spacingRight=4;overflow=hidden;rotatable=0;points=[[0,0.5],[1,0.5]];portConstraint=eastwest;whiteSpace=wrap;html=1;" vertex="1" parent="3dMW__xWqFYQ9HDm3cvc-5">
          <mxGeometry y="138" width="310" height="32" as="geometry" />
        </mxCell>
        <mxCell id="3dMW__xWqFYQ9HDm3cvc-11" style="edgeStyle=orthogonalEdgeStyle;rounded=0;orthogonalLoop=1;jettySize=auto;html=1;" edge="1" parent="1" source="3dMW__xWqFYQ9HDm3cvc-2">
          <mxGeometry relative="1" as="geometry">
            <mxPoint x="290" y="160" as="targetPoint" />
          </mxGeometry>
        </mxCell>
        <mxCell id="3dMW__xWqFYQ9HDm3cvc-22" value="topic: event" style="edgeLabel;html=1;align=center;verticalAlign=middle;resizable=0;points=[];" vertex="1" connectable="0" parent="3dMW__xWqFYQ9HDm3cvc-11">
          <mxGeometry x="-0.0448" y="-4" relative="1" as="geometry">
            <mxPoint x="-8" y="-4" as="offset" />
          </mxGeometry>
        </mxCell>
        <mxCell id="3dMW__xWqFYQ9HDm3cvc-15" style="edgeStyle=orthogonalEdgeStyle;rounded=0;orthogonalLoop=1;jettySize=auto;html=1;entryX=0;entryY=0.5;entryDx=0;entryDy=0;" edge="1" parent="1" source="3dMW__xWqFYQ9HDm3cvc-12" target="3dMW__xWqFYQ9HDm3cvc-13">
          <mxGeometry relative="1" as="geometry" />
        </mxCell>
        <mxCell id="3dMW__xWqFYQ9HDm3cvc-16" style="edgeStyle=orthogonalEdgeStyle;rounded=0;orthogonalLoop=1;jettySize=auto;html=1;" edge="1" parent="1" source="3dMW__xWqFYQ9HDm3cvc-12" target="3dMW__xWqFYQ9HDm3cvc-14">
          <mxGeometry relative="1" as="geometry" />
        </mxCell>
        <mxCell id="3dMW__xWqFYQ9HDm3cvc-20" style="edgeStyle=orthogonalEdgeStyle;rounded=0;orthogonalLoop=1;jettySize=auto;html=1;entryX=0;entryY=0.5;entryDx=0;entryDy=0;" edge="1" parent="1" source="3dMW__xWqFYQ9HDm3cvc-12" target="3dMW__xWqFYQ9HDm3cvc-19">
          <mxGeometry relative="1" as="geometry" />
        </mxCell>
        <mxCell id="3dMW__xWqFYQ9HDm3cvc-12" value="Dispatcher" style="rounded=0;whiteSpace=wrap;html=1;" vertex="1" parent="1">
          <mxGeometry x="790" y="130" width="120" height="60" as="geometry" />
        </mxCell>
        <mxCell id="3dMW__xWqFYQ9HDm3cvc-13" value="MongoDB Writer" style="rounded=0;whiteSpace=wrap;html=1;" vertex="1" parent="1">
          <mxGeometry x="1000" y="30" width="120" height="60" as="geometry" />
        </mxCell>
        <mxCell id="3dMW__xWqFYQ9HDm3cvc-14" value="File Writer (*jsonl)" style="rounded=0;whiteSpace=wrap;html=1;" vertex="1" parent="1">
          <mxGeometry x="1000" y="130" width="120" height="60" as="geometry" />
        </mxCell>
        <mxCell id="3dMW__xWqFYQ9HDm3cvc-19" value="Google Sheets Writer" style="rounded=0;whiteSpace=wrap;html=1;" vertex="1" parent="1">
          <mxGeometry x="1000" y="230" width="120" height="60" as="geometry" />
        </mxCell>
        <mxCell id="3dMW__xWqFYQ9HDm3cvc-23" value="Creates an instance of class Event and sends the according data to the MQTT Broker as Json" style="text;html=1;align=center;verticalAlign=middle;whiteSpace=wrap;rounded=0;" vertex="1" parent="1">
          <mxGeometry x="235" y="200" width="230" height="30" as="geometry" />
        </mxCell>
        <mxCell id="3dMW__xWqFYQ9HDm3cvc-28" value="- Looks for registered Writers on Startup&lt;br&gt;&lt;div&gt;- extracts platform and event_type from topic&lt;/div&gt;&lt;div&gt;- parses event data from json&lt;/div&gt;&lt;div&gt;- dispatch event to different writer&lt;/div&gt;" style="text;html=1;align=center;verticalAlign=middle;whiteSpace=wrap;rounded=0;" vertex="1" parent="1">
          <mxGeometry x="730" y="200" width="230" height="80" as="geometry" />
        </mxCell>
        <mxCell id="3dMW__xWqFYQ9HDm3cvc-33" value="Writer" style="swimlane;fontStyle=1;align=center;verticalAlign=top;childLayout=stackLayout;horizontal=1;startSize=26;horizontalStack=0;resizeParent=1;resizeParentMax=0;resizeLast=0;collapsible=1;marginBottom=0;whiteSpace=wrap;html=1;" vertex="1" parent="1">
          <mxGeometry x="800" y="371" width="350" height="130" as="geometry" />
        </mxCell>
        <mxCell id="3dMW__xWqFYQ9HDm3cvc-34" value="+ field: type" style="text;strokeColor=none;fillColor=none;align=left;verticalAlign=top;spacingLeft=4;spacingRight=4;overflow=hidden;rotatable=0;points=[[0,0.5],[1,0.5]];portConstraint=eastwest;whiteSpace=wrap;html=1;" vertex="1" parent="3dMW__xWqFYQ9HDm3cvc-33">
          <mxGeometry y="26" width="350" height="44" as="geometry" />
        </mxCell>
        <mxCell id="3dMW__xWqFYQ9HDm3cvc-35" value="" style="line;strokeWidth=1;fillColor=none;align=left;verticalAlign=middle;spacingTop=-1;spacingLeft=3;spacingRight=3;rotatable=0;labelPosition=right;points=[];portConstraint=eastwest;strokeColor=inherit;" vertex="1" parent="3dMW__xWqFYQ9HDm3cvc-33">
          <mxGeometry y="70" width="350" height="8" as="geometry" />
        </mxCell>
        <mxCell id="3dMW__xWqFYQ9HDm3cvc-36" value="+ method: write(event: Event)&lt;div&gt;+ method: health_status()&lt;/div&gt;" style="text;strokeColor=none;fillColor=none;align=left;verticalAlign=top;spacingLeft=4;spacingRight=4;overflow=hidden;rotatable=0;points=[[0,0.5],[1,0.5]];portConstraint=eastwest;whiteSpace=wrap;html=1;" vertex="1" parent="3dMW__xWqFYQ9HDm3cvc-33">
          <mxGeometry y="78" width="350" height="52" as="geometry" />
        </mxCell>
      </root>
    </mxGraphModel>
  </diagram>
</mxfile>
